<svg xmlns="http://www.w3.org/2000/svg" xmlns:xlink="http://www.w3.org/1999/xlink" viewBox="0 0 750 538.9"><defs><style>.cls-1,.cls-11,.cls-13,.cls-20,.cls-21,.cls-23,.cls-26,.cls-31,.cls-34,.cls-35,.cls-39,.cls-42,.cls-45,.cls-46,.cls-50,.cls-52{fill:none;}.cls-2{fill:#fffef8;}.cls-3{fill:#fde5d8;}.cls-4{clip-path:url(#clip-path);}.cls-5{fill:#71626a;}.cls-6{fill:#fbc9ca;}.cls-7{fill:#fcaa54;}.cls-8{fill:#111010;}.cls-9{fill:#222c44;}.cls-10{fill:#e57f7e;}.cls-11{stroke:#e57f7e;stroke-width:1.2px;}.cls-11,.cls-13,.cls-20,.cls-21,.cls-26,.cls-31,.cls-34,.cls-42,.cls-45,.cls-46,.cls-50,.cls-52{stroke-linecap:round;}.cls-11,.cls-21,.cls-23,.cls-26,.cls-34,.cls-35,.cls-39,.cls-42,.cls-46,.cls-50{stroke-miterlimit:10;}.cls-12{fill:#99b898;}.cls-13{stroke:#678b6b;stroke-width:1.23px;}.cls-13,.cls-20,.cls-31,.cls-45,.cls-52{stroke-linejoin:round;}.cls-14{fill:#fdc2ab;}.cls-15{fill:#e5e5e5;}.cls-16{fill:#101010;}.cls-17{fill:#d8715b;}.cls-18{fill:#9c3720;}.cls-19{fill:#fff;}.cls-20{stroke:#9c3720;stroke-width:0.97px;}.cls-21{stroke:#f3ebe7;stroke-width:0.94px;}.cls-22{fill:#f3ebe7;}.cls-23{stroke:#cdbab2;}.cls-24{fill:#fb5957;}.cls-25{fill:#f19a99;}.cls-26,.cls-42,.cls-46{stroke:#d67374;}.cls-26{stroke-width:1.17px;}.cls-27{fill:#d67374;}.cls-28{fill:#ec9595;}.cls-29{fill:#e84a5f;}.cls-30{fill:#f59f9d;}.cls-31{stroke:#f47c60;stroke-width:1.14px;}.cls-32{clip-path:url(#clip-path-2);}.cls-33{fill:#3e0517;}.cls-34{stroke:#e37f7e;stroke-width:1.34px;}.cls-35{stroke:#fff;stroke-width:0.62px;}.cls-36{fill:#e37f7e;}.cls-37{fill:#7d2d76;}.cls-38{fill:#2a363b;}.cls-39{stroke:#51434b;}.cls-40{clip-path:url(#clip-path-3);}.cls-41{fill:#2b2622;}.cls-42{stroke-width:1.24px;}.cls-43{fill:#ff847c;}.cls-44{fill:#352938;}.cls-45{stroke:#fc7a99;stroke-width:1.25px;}.cls-46{stroke-width:0.5px;}.cls-47{fill:#f39c9b;}.cls-48{fill:#782533;}.cls-49{fill:#d87374;}.cls-50{stroke:#d87374;stroke-width:1.21px;}.cls-51{fill:#feceab;}.cls-52{stroke:#e1272c;stroke-width:1.19px;}</style><clipPath id="clip-path" transform="translate(0.06 -0.05)"><path class="cls-1" d="M232.31,365.71a88.51,88.51,0,1,1-36.16-71.38c8.21,6,4.21,24,9.91,32.46C215.61,340.92,232.31,347.37,232.31,365.71Z"/></clipPath><clipPath id="clip-path-2" transform="translate(0.06 -0.05)"><path class="cls-1" d="M361.42,55.56h94.41a0,0,0,0,1,0,0V227a0,0,0,0,1,0,0H284.41a0,0,0,0,1,0,0V132.57A77,77,0,0,1,361.42,55.56Z"/></clipPath><clipPath id="clip-path-3" transform="translate(0.06 -0.05)"><path class="cls-1" d="M691.59,151.41A88.51,88.51,0,1,1,603.08,62.9c7,0,19-11.09,25.6-9.54,13,3.08,19.79,21,29.88,29.08A88.34,88.34,0,0,1,691.59,151.41Z"/></clipPath></defs><g id="BACKGROUND"><rect class="cls-2" width="750" height="500"/></g><g id="OBJECTS"><circle class="cls-3" cx="143.86" cy="365.66" r="88.51"/><g class="cls-4"><polygon class="cls-5" points="104.24 521.45 181.82 521.21 181.95 494.73 101.51 496.57 104.24 521.45"/><path class="cls-6" d="M111.38,400.22s0-.08,0-.11c-1.84-10.31-3.13-20-2.46-30.49.33-5.15,6.51-18.37,10.14-19.47,13.18-4,24.4-4.53,37.78-1.23.18,0,16.94,6.38,20.4,9.92,6.18,6.35-3.16,34.62-5.84,44.67C151.34,403.45,131.37,401,111.38,400.22Z" transform="translate(0.06 -0.05)"/><path class="cls-7" d="M155.63,339.71s16.07-17.78,11-40.12c-2.46-10.93-14.44-18.67-25.6-17.68a18.77,18.77,0,0,0-13,6.74l22.66,47.45" transform="translate(0.06 -0.05)"/><path class="cls-6" d="M151.65,286.27a16.87,16.87,0,0,1,4.43,2.89c12.28,11,5.49,33.51-4.83,43.89-5.72,5.74-14.25,8.6-21.87,6-11.15-3.77-15-16.12-13.14-27.3,1.39-8.33,5.71-16.29,12.32-21.38S144.25,283,151.65,286.27Z" transform="translate(0.06 -0.05)"/><path class="cls-6" d="M155,326.22a8.68,8.68,0,0,0,8.56,1.64A9.42,9.42,0,0,0,169.1,321c.56-2.76-.25-5.84-2.31-7.45s-5.69-1.38-7.33.86Z" transform="translate(0.06 -0.05)"/><path class="cls-6" d="M157.77,318.85l-.88,39.33A13.75,13.75,0,0,1,149,370.54a13.93,13.93,0,0,1-5.09,1.27h0a13.73,13.73,0,0,1-14.4-15l3.2-36.61Z" transform="translate(0.06 -0.05)"/><path class="cls-8" d="M130.53,344.91l.37-5.39s10.91,3,20.35-6.47C151.25,333.05,146,343.47,130.53,344.91Z" transform="translate(0.06 -0.05)"/><path class="cls-9" d="M137.38,315.55l.1-.05c.7-.55,1.7.42,1,1-1.32,1-3.21-.63-1.84-1.82a1.4,1.4,0,0,1,1.91,2c-1.26,1.25-3.19-.92-1.65-1.92s2.64,1.57.85,2.13c-.85.27-1.22-1.07-.37-1.34Z" transform="translate(0.06 -0.05)"/><path class="cls-9" d="M134.75,309a42,42,0,0,1,8.79,1.09,1,1,0,0,1-.52,1.95,39.71,39.71,0,0,0-8.27-1,1,1,0,0,1,0-2Z" transform="translate(0.06 -0.05)"/><path class="cls-9" d="M120.4,311l.1-.05c.69-.55,1.69.41,1,1-1.31,1.05-3.2-.63-1.84-1.82a1.4,1.4,0,0,1,1.92,2c-1.27,1.25-3.2-.93-1.66-1.92s2.64,1.56.86,2.13c-.86.27-1.23-1.07-.37-1.34Z" transform="translate(0.06 -0.05)"/><path class="cls-10" d="M126.39,320.21a5.2,5.2,0,0,1-1.24-.84,9.83,9.83,0,0,1-1-1.05l-.67-.82,1-.27a4.85,4.85,0,0,0,1.5-.9c.51-.41,1-.88,1.57-1.34a5.12,5.12,0,0,1-.84,2,3.9,3.9,0,0,1-1.81,1.53l.31-1.09a8.85,8.85,0,0,1,.89,1.13,5,5,0,0,1,.66,1.35.25.25,0,0,1-.17.31A.27.27,0,0,1,126.39,320.21Z" transform="translate(0.06 -0.05)"/><path class="cls-10" d="M123.68,323.46a8.79,8.79,0,0,0,2.52,1.11,4.5,4.5,0,0,0,2.42-.11,8,8,0,0,0,2.23-1.27c.33-.32.7-.59,1.05-.91a13,13,0,0,1,1.09-1,11.73,11.73,0,0,1-.56,1.38,14.37,14.37,0,0,1-.84,1.25,5.78,5.78,0,0,1-2.55,1.81,4.31,4.31,0,0,1-3.2-.18A4.56,4.56,0,0,1,123.68,323.46Z" transform="translate(0.06 -0.05)"/><path class="cls-9" d="M126.43,306.89a34.43,34.43,0,0,0-7.5-2.5c-1.16-.24-1.7,1.63-.55,1.87a32.2,32.2,0,0,1,7.06,2.36c1,.48,2-1.24,1-1.73Z" transform="translate(0.06 -0.05)"/><path class="cls-11" d="M160.62,321.86c1.62.11,3-.81,3.09-2.06a2.33,2.33,0,0,0-1.65-2.21" transform="translate(0.06 -0.05)"/><path class="cls-7" d="M142.09,300.48l-20.87-2.69a22.76,22.76,0,0,1,13.88-14.17s14.63-2.91,21,5.54C156.08,289.16,144.61,290.27,142.09,300.48Z" transform="translate(0.06 -0.05)"/><path class="cls-7" d="M161.9,312.46s-12.53.91-10.21-16a16.28,16.28,0,0,1,1.48-4.86l2-4.07s5.49,3.37,7.25,9.44C165.51,307.76,161.9,312.46,161.9,312.46Z" transform="translate(0.06 -0.05)"/><path class="cls-12" d="M57.18,410.8c-9.41,18.38,51.67,98,51.67,98s23.3,13,83.62-1.71l-7.7-99.29L166.42,353.3c-.95-2.81-3.64-4.38-6.37-3.22h0s-10.55,7.19-31.11-2.3C128.94,347.78,97.7,331.63,57.18,410.8Z" transform="translate(0.06 -0.05)"/><path class="cls-6" d="M185.49,486.57l-4.34,22,14.19,6.53s4.56-11.67,9.27-24.4Q195,488.81,185.49,486.57Z" transform="translate(0.06 -0.05)"/><path class="cls-6" d="M181.76,505.25c-2.39,2.9-8.19,8.62-12.32,9.25a2.53,2.53,0,0,0,1.76,2.37c4.31.82,8-2.14,8-2.14s-1.56,21.27.36,21,2.28-10.48,2.28-10.48,0,14.32,1.75,13.43c.68-.35-.48-2.19,1.72-10.77,0,0,1,12.74,2.46,10.87,1.89-2.36,1.79-10,1.79-10s1.95,8.32,3.09,6.73c.83-1.16,2.5-17,3.92-24.46C194.54,510,181.87,504.53,181.76,505.25Z" transform="translate(0.06 -0.05)"/><path class="cls-12" d="M178.19,500.89l25.53,6.26,10.88-42.51a74.75,74.75,0,0,0-1.15-41.09c-9-28.45-37.12-79.53-53.06-73.55l9.13,83.44Z" transform="translate(0.06 -0.05)"/><path class="cls-13" d="M169.91,394.51s15.69,38.76,16,48.09c.36,11.27-10.6,43.84-10.6,43.84" transform="translate(0.06 -0.05)"/><path class="cls-13" d="M103.79,392.14S85.33,433.27,85,442.6c-.37,11.27,10.59,43.84,10.59,43.84" transform="translate(0.06 -0.05)"/></g><path class="cls-14" d="M205.12,429.73s-3.53-5.57-10,0c0,0-2.25,4.41,4.19,13.32a2.66,2.66,0,0,0,3.62.41h0a2.73,2.73,0,0,0,1.25-3.19l-2.88-7.12Z" transform="translate(0.06 -0.05)"/><path class="cls-14" d="M195.17,429.69a8.31,8.31,0,0,0-5.76,3.74,7.44,7.44,0,0,0-4.11,3.67,3.86,3.86,0,0,0-2.25,1.91,3.76,3.76,0,0,0,.1,3.88c1.18,1.93,3.52,5.08,6.52,5.87a1.88,1.88,0,0,0,1.92-.57c.38-.43.72-.49.61-1.29a2.84,2.84,0,0,0,2.62.07,2.29,2.29,0,0,0,1.09-2.68s1.42,3.26,4.77,0S195.17,429.69,195.17,429.69Z" transform="translate(0.06 -0.05)"/><path class="cls-14" d="M81.83,429.73s3.53-5.57,10,0c0,0,2.25,4.41-4.18,13.32a2.68,2.68,0,0,1-3.63.41h0a2.75,2.75,0,0,1-1.25-3.19l2.88-7.12Z" transform="translate(0.06 -0.05)"/><path class="cls-14" d="M91.78,429.69a8.32,8.32,0,0,1,5.77,3.74,7.43,7.43,0,0,1,4.1,3.67A3.83,3.83,0,0,1,103.9,439a3.76,3.76,0,0,1-.09,3.88c-1.19,1.93-3.52,5.08-6.53,5.87a1.86,1.86,0,0,1-1.91-.57c-.39-.43-.73-.49-.62-1.29a2.84,2.84,0,0,1-2.62.07,2.3,2.3,0,0,1-1.08-2.68s-1.43,3.26-4.77,0S91.78,429.69,91.78,429.69Z" transform="translate(0.06 -0.05)"/><polygon class="cls-15" points="257.42 440.75 482.94 440.75 371.84 266.65 257.42 440.75"/><path class="cls-16" d="M377.25,340.56,348,339s6.69-61.14,38.63-53.89c32.58,7.4,3.37,56.46,3.37,56.46Z" transform="translate(0.06 -0.05)"/><path class="cls-17" d="M375.33,288.08a16,16,0,0,0-4.22,2.57c-11.81,10-6.11,31.18,3.23,41.18,5.18,5.54,13.08,8.47,20.28,6.28,10.53-3.19,14.5-14.63,13.08-25.14a32,32,0,0,0-10.9-20.35C390.77,287.67,382.34,285.2,375.33,288.08Z" transform="translate(0.06 -0.05)"/><path class="cls-17" d="M371.06,325.34a8.11,8.11,0,0,1-8.05,1.28,8.79,8.79,0,0,1-5-6.56c-.44-2.6.4-5.46,2.38-6.9a5.08,5.08,0,0,1,6.83,1Z" transform="translate(0.06 -0.05)"/><path class="cls-17" d="M368.66,318.37l-.33,36.8a12.84,12.84,0,0,0,11.76,13.12h0A12.85,12.85,0,0,0,394,354.68l-1.93-34.32Z" transform="translate(0.06 -0.05)"/><path class="cls-8" d="M393.37,343.53l-.19-5a20.68,20.68,0,0,1-18.84-6.65S379,341.73,393.37,343.53Z" transform="translate(0.06 -0.05)"/><path class="cls-16" d="M390.36,309.53a38.91,38.91,0,0,0-8.17,1.4c-1.17.33-.6,2.14.57,1.8a37.15,37.15,0,0,1,7.69-1.31,1,1,0,0,0-.09-1.89Z" transform="translate(0.06 -0.05)"/><path class="cls-16" d="M388.26,314.75l-.09-.05c-.63-.54-1.6.34-1,.88,1.2,1,3-.5,1.77-1.65a1.31,1.31,0,0,0-1.85,1.84c1.15,1.2,3-.77,1.6-1.74s-2.51,1.38-.86,2c.79.28,1.18-1,.39-1.24Z" transform="translate(0.06 -0.05)"/><path class="cls-16" d="M404.28,310.94l-.1-.05c-.63-.54-1.59.34-.95.88,1.2,1,3-.5,1.77-1.65a1.31,1.31,0,0,0-1.85,1.84c1.15,1.2,3-.77,1.6-1.75s-2.51,1.39-.86,2c.79.28,1.18-1,.39-1.24Z" transform="translate(0.06 -0.05)"/><path class="cls-10" d="M397.64,320.26a5,5,0,0,1,.65-1.24,7.85,7.85,0,0,1,.88-1l.25,1a3.7,3.7,0,0,1-1.65-1.48,4.91,4.91,0,0,1-.73-1.9c.52.45,1,.9,1.44,1.3a4.38,4.38,0,0,0,1.37.88l.9.28-.65.75a7.83,7.83,0,0,1-1,.95,4.48,4.48,0,0,1-1.18.75.23.23,0,0,1-.31-.12A.33.33,0,0,1,397.64,320.26Z" transform="translate(0.06 -0.05)"/><path class="cls-10" d="M400.4,323.68a4.24,4.24,0,0,1-2.08,1.9,4.09,4.09,0,0,1-3,.08,5.46,5.46,0,0,1-2.33-1.77,12.46,12.46,0,0,1-.75-1.19,12.12,12.12,0,0,1-.49-1.31,13,13,0,0,1,1,.94c.32.3.66.58,1,.88a7.78,7.78,0,0,0,2,1.26,4.11,4.11,0,0,0,2.26.17A8.49,8.49,0,0,0,400.4,323.68Z" transform="translate(0.06 -0.05)"/><path class="cls-18" d="M397.68,320.3a8.08,8.08,0,0,1,1.6-2.21l.19.78a3.65,3.65,0,0,1-1.61-1.4,5.51,5.51,0,0,1-.5-.88,6.63,6.63,0,0,1-.32-.95c.46.48.9.95,1.35,1.37a4.22,4.22,0,0,0,1.41,1,.47.47,0,0,1,.3.6.54.54,0,0,1-.1.16v0a8.26,8.26,0,0,1-2.07,1.77.17.17,0,0,1-.24-.22Z" transform="translate(0.06 -0.05)"/><path class="cls-19" d="M400.4,323.68s-4.36,4.93-8.65-2.29Z" transform="translate(0.06 -0.05)"/><path class="cls-16" d="M398.31,308.1A32.25,32.25,0,0,1,405.4,306c1.09-.19,1.54,1.58.46,1.77a30.21,30.21,0,0,0-6.67,2c-1,.43-1.87-1.22-.88-1.64Z" transform="translate(0.06 -0.05)"/><path class="cls-20" d="M365.91,321.1c-1.52.06-2.79-.85-2.84-2a2.21,2.21,0,0,1,1.61-2" transform="translate(0.06 -0.05)"/><path class="cls-16" d="M403.42,300.74s-9.45-4.29-10.65-8.26c0,0-10,26.76-27.3,21.08-.24-.84-4.37-4.06-4.37-4.06s3-26.95,23.23-24.65A22.9,22.9,0,0,1,400.4,295,25,25,0,0,1,403.42,300.74Z" transform="translate(0.06 -0.05)"/><path class="cls-21" d="M365,312.1s5.32-34.19,31.09-22.49" transform="translate(0.06 -0.05)"/><path class="cls-19" d="M368.44,325.61a1.85,1.85,0,1,1-1.84-1.84A1.84,1.84,0,0,1,368.44,325.61Z" transform="translate(0.06 -0.05)"/><polygon class="cls-17" points="427.01 440.72 406.57 396.04 435.22 394.96 446.73 440.6 427.01 440.72"/><path class="cls-22" d="M409.76,356.81s19.83,1,29.54,42.46l-32.24,14.82Z" transform="translate(0.06 -0.05)"/><path class="cls-22" d="M409.76,356.81s12.24,41.44,17.19,84l-95.6-.1s-.45-27.53,0-54.86,22.06-30.21,22.06-30.21l52.52.6Z" transform="translate(0.06 -0.05)"/><path class="cls-17" d="M405.94,356.2s-17.45-4.12-21.47-4.12c0,0-11.17-.85-31.05,3.52,0,0,29.79,24.81,52.52.6Z" transform="translate(0.06 -0.05)"/><path class="cls-22" d="M353.42,355.6s-25.06.68-30.67,10.14-16.49,40-16.49,40l42.42,6.9Z" transform="translate(0.06 -0.05)"/><polyline class="cls-23" points="343.39 411.74 349.68 412.86 353.5 389.21"/><path class="cls-17" d="M383.26,430.41l-46.5,3.21,5.64-22.11-26-4s-19.82,50.47-12,55c18.43,10.76,82.35-21.93,82.35-21.93Z" transform="translate(0.06 -0.05)"/><path class="cls-17" d="M383.26,430.41s28.27-6.76,28.27,10.2H386.67Z" transform="translate(0.06 -0.05)"/><circle class="cls-15" cx="137.77" cy="152.28" r="90.84"/><path class="cls-24" d="M92.42,74c0-.54,0-1.07.07-1.64C94.18,46.78,130,43.14,140.06,61.27L111.93,94.73A16.08,16.08,0,0,1,101,104.18,15.7,15.7,0,0,1,81.78,92.86,15.93,15.93,0,0,1,92.42,74Z" transform="translate(0.06 -0.05)"/><path class="cls-25" d="M107.15,80.63,101,117.85A13.13,13.13,0,0,0,110.71,133h0a13.08,13.08,0,0,0,16.09-11.59l3.5-35.06Z" transform="translate(0.06 -0.05)"/><path class="cls-8" d="M127.94,110l.61-5.14s-10.71.85-17.83-9.7C110.72,95.16,113.78,105.91,127.94,110Z" transform="translate(0.06 -0.05)"/><path class="cls-25" d="M114.31,53.31A16.32,16.32,0,0,0,110.08,56c-11.77,10.49-5.56,32.08,4.13,42.11,5.37,5.56,13.44,8.37,20.7,6,10.61-3.52,14.41-15.33,12.75-26.06-1.23-8-5.25-15.67-11.48-20.6S121.37,50.19,114.31,53.31Z" transform="translate(0.06 -0.05)"/><path class="cls-25" d="M110.75,91.58a8.2,8.2,0,0,1-8.14,1.5,9,9,0,0,1-5.22-6.61c-.5-2.65.29-5.6,2.27-7.12a5.11,5.11,0,0,1,7,.88Z" transform="translate(0.06 -0.05)"/><path class="cls-26" d="M105.43,87.35a2.52,2.52,0,0,1-2.91-2,2.27,2.27,0,0,1,1.59-2.11" transform="translate(0.06 -0.05)"/><path class="cls-27" d="M138.16,81.46a4.75,4.75,0,0,1,.38-1.39,7.14,7.14,0,0,1,.65-1.22l.48,1a3.7,3.7,0,0,1-2-1.13A4.78,4.78,0,0,1,136.6,77l1.7,1a4.47,4.47,0,0,0,1.54.58l1,.08-.5.91a7.92,7.92,0,0,1-.75,1.16,4.62,4.62,0,0,1-1,1Z" transform="translate(0.06 -0.05)"/><path class="cls-27" d="M141.63,84.29A4.35,4.35,0,0,1,140,86.64a4.17,4.17,0,0,1-3,.74,5.61,5.61,0,0,1-2.7-1.28,10.68,10.68,0,0,1-1-1,11.55,11.55,0,0,1-.76-1.2,12.52,12.52,0,0,1,1.19.72c.38.24.78.44,1.14.67a7.36,7.36,0,0,0,2.29.82,4.08,4.08,0,0,0,2.27-.32A8.58,8.58,0,0,0,141.63,84.29Z" transform="translate(0.06 -0.05)"/><path class="cls-9" d="M129,72.5a9.81,9.81,0,0,1,1,3.63,3.54,3.54,0,0,1-.37,2,2.47,2.47,0,0,1-1.84,1.17,3.06,3.06,0,0,1-2.06-.49,5.84,5.84,0,0,1-1.44-1.36,11.24,11.24,0,0,1-1.71-3.36.3.3,0,0,1,.2-.39.31.31,0,0,1,.38.16h0a14.35,14.35,0,0,0,1.84,3c.73.86,1.68,1.63,2.66,1.45a1.47,1.47,0,0,0,1.16-.68,2.85,2.85,0,0,0,.32-1.52,12,12,0,0,0-.66-3.45h0a.26.26,0,0,1,.17-.33A.27.27,0,0,1,129,72.5Z" transform="translate(0.06 -0.05)"/><path class="cls-9" d="M143.43,68a9.44,9.44,0,0,1,.92,3,3.52,3.52,0,0,1-.2,1.73,1.91,1.91,0,0,1-1.53,1.15,2.48,2.48,0,0,1-1.78-.52,5.51,5.51,0,0,1-1.14-1.23,10.4,10.4,0,0,1-1.33-2.87.32.32,0,0,1,.22-.39A.32.32,0,0,1,139,69h0a15.29,15.29,0,0,0,1.48,2.55c.57.74,1.33,1.45,2.05,1.31a.94.94,0,0,0,.81-.56,3.08,3.08,0,0,0,.19-1.29,12.78,12.78,0,0,0-.54-2.89h0a.26.26,0,0,1,.18-.33A.25.25,0,0,1,143.43,68Z" transform="translate(0.06 -0.05)"/><path class="cls-24" d="M136.11,56.85s-16.26,23.64-31.67,21.77l-4.28-2.43s-6-23.22,16.9-25.94C126.9,49.08,136.11,56.85,136.11,56.85Z" transform="translate(0.06 -0.05)"/><path class="cls-28" d="M208.63,151.61c.73-3.31,1.56-10.62-.28-13.91a2.29,2.29,0,0,1,2.65-.06c2.95,2.62,2.91,6.91,2.91,6.91s14.11-12.91,15-11.38-6.12,7.43-6.12,7.43,10.07-7.94,10.42-6.19c.13.67-1.81.87-6.63,7.19,0,0,9.49-6.38,9-4.27-.62,2.65-6.09,6.84-6.09,6.84s6.93-3.22,6.44-1.53c-.35,1.24-10.58,11.2-15,16.36C219,158.06,208.19,152.08,208.63,151.61Z" transform="translate(0.06 -0.05)"/><path class="cls-28" d="M213.06,148.61l-44,29.18-3-2.79L143,195.06s20.32,21,23.57,19.51c15.87-7.15,54.46-55.62,54.46-55.62Z" transform="translate(0.06 -0.05)"/><path class="cls-29" d="M124.07,122.89c13.07,11.56,10.09,10.5,45.62,49l-27.2,38s-36.85-34.55-42.71-75C97.45,118.74,106.66,107.51,124.07,122.89Z" transform="translate(0.06 -0.05)"/><path class="cls-29" d="M94.27,124.5a33.09,33.09,0,0,1,4.2-5.55,13.5,13.5,0,0,1,8.2-4.2h.06c9.89-1.24,19.76,3.13,24.9,11.05,11.12,17.1,13,35.29,12.44,50.79l-12,66.3c-1.46-.09-2.92-.21-4.39-.37A90.42,90.42,0,0,1,73.88,217c.63-42.17,9.75-70.29,17-86.09A59.34,59.34,0,0,1,94.27,124.5Z" transform="translate(0.06 -0.05)"/><path class="cls-30" d="M211.33,177.32c1.41-3.08,3.79-10,2.7-13.65a2.27,2.27,0,0,1,2.6.51c2.32,3.19,1.37,7.37,1.37,7.37s16.54-9.58,17-7.91-7.56,6-7.56,6S239,164,239,165.78c0,.68-1.95.45-8,5.6,0,0,10.64-4.2,9.71-2.24-1.17,2.45-7.42,5.37-7.42,5.37s7.47-1.66,6.62-.11c-.61,1.13-12.74,8.67-18.21,12.75C220.1,185.85,210.79,177.68,211.33,177.32Z" transform="translate(0.06 -0.05)"/><path class="cls-30" d="M213.05,176.11,169.8,207.82,154.45,189.3,134.61,209s19.71,32.62,25.63,31.31c20.52-4.52,61.75-53.68,61.75-53.68Z" transform="translate(0.06 -0.05)"/><path class="cls-29" d="M136.1,131.5c11,15.84,9.51,13,42.76,65.49l-41.81,28.27c-28.63-38.32-51.78-55.2-43.08-89.8C98.45,117.62,121.39,110.41,136.1,131.5Z" transform="translate(0.06 -0.05)"/><path class="cls-31" d="M137.05,225.26s-20.92-14.07-38.82-55.63" transform="translate(0.06 -0.05)"/><rect class="cls-3" x="284.47" y="55.51" width="171.42" height="171.42"/><g class="cls-32"><path class="cls-19" d="M325.47,226c29.62-3,59.31-5.66,89.07-6.54l-.12-23.59a44.47,44.47,0,0,0-30.75-42.07h0l-31.5.16-7.46,4.76a48.23,48.23,0,0,0-21.91,47Z" transform="translate(0.06 -0.05)"/><path class="cls-33" d="M349.18,120.44s3.48,9.45,10.28,13.34c-.13-.55-1-17.64-1-17.64Z" transform="translate(0.06 -0.05)"/><path class="cls-30" d="M364.48,79.09A18.57,18.57,0,0,0,359.35,82c-14.47,11.33-8.65,36.78,2,49.08,5.91,6.81,15.16,10.64,23.82,8.36,12.66-3.33,17.89-16.75,16.67-29.3-.91-9.35-5.11-18.52-12.06-24.68S373,76,364.48,79.09Z" transform="translate(0.06 -0.05)"/><path class="cls-30" d="M357.76,123.18a9.67,9.67,0,0,1-9.63,1.17,10.5,10.5,0,0,1-5.67-8c-.4-3.1.72-6.47,3.14-8.09s6.42-1.1,8.07,1.51Z" transform="translate(0.06 -0.05)"/><path class="cls-30" d="M374.92,162.8c-6.36.06-14.92-8.57-21.27-8.59l1.56-39.42,27.74,3.4.73,38.52C379.89,156.83,378.7,162.66,374.92,162.8Z" transform="translate(0.06 -0.05)"/><path class="cls-8" d="M383.47,145.79v-6s-12.34,2.45-22.1-8.74C361.37,131,366.42,143,383.47,145.79Z" transform="translate(0.06 -0.05)"/><path class="cls-9" d="M378.09,114.93l-.1-.07c-.73-.66-1.92.33-1.18,1,1.38,1.26,3.6-.46,2.18-1.89a1.56,1.56,0,0,0-2.28,2.11c1.31,1.48,3.61-.78,2-2s-3.05,1.53-1.11,2.3c.93.36,1.44-1.1.51-1.46Z" transform="translate(0.06 -0.05)"/><path class="cls-9" d="M397.3,111.11l-.11-.07c-.72-.66-1.91.33-1.18,1,1.39,1.26,3.61-.46,2.19-1.89a1.56,1.56,0,0,0-2.28,2.11c1.31,1.48,3.61-.78,2-2s-3,1.53-1.11,2.3c.93.36,1.44-1.1.51-1.46Z" transform="translate(0.06 -0.05)"/><path class="cls-9" d="M381.52,106.74a47.06,47.06,0,0,0-9.85.53,1.13,1.13,0,0,0,.43,2.21,44.18,44.18,0,0,1,9.26-.5,1.12,1.12,0,0,0,.16-2.24Z" transform="translate(0.06 -0.05)"/><path class="cls-9" d="M390.91,105a38.38,38.38,0,0,1,8.52-2.2c1.3-.18,1.76,1.94.46,2.12a36.69,36.69,0,0,0-8,2.07c-1.19.46-2.17-1.53-1-2Z" transform="translate(0.06 -0.05)"/><path class="cls-34" d="M351.82,117.92c-1.81,0-3.28-1.14-3.28-2.53a2.61,2.61,0,0,1,2-2.33" transform="translate(0.06 -0.05)"/><path class="cls-33" d="M380.12,140.84c-7.38-.39-22.61-4.18-26.34-28.27l4-4.07s13.47,22.23,44,8.19c0,0-.3,18.33-14.62,23.24A18.93,18.93,0,0,1,380.12,140.84Z" transform="translate(0.06 -0.05)"/><path class="cls-19" d="M385.72,124.06l6.53-.7S389.89,129.2,385.72,124.06Z" transform="translate(0.06 -0.05)"/><path class="cls-33" d="M361.13,91.82s15.64-14.53,31.26-4.16c0,0-11.95-17.09-28.76-12.37s-19.38,22.26-18,32.94c0,0,5.33-2.25,8.07,1.51l.11,2.83s4.71,3.43,4.57,2.87S368.63,98.49,361.13,91.82Z" transform="translate(0.06 -0.05)"/><path class="cls-33" d="M361.13,91.82s20,5.56,34.18-.14c0,0-6-14.17-25.84-10.69S361.13,91.82,361.13,91.82Z" transform="translate(0.06 -0.05)"/><circle class="cls-35" cx="378.14" cy="113.62" r="7.63" transform="translate(-15.66 85.81) rotate(-12.69)"/><line class="cls-35" x1="389.79" y1="109.59" x2="385.11" y2="110.37"/><line class="cls-35" x1="370.44" y1="113.05" x2="353.73" y2="109.69"/><circle class="cls-35" cx="397.49" cy="110.55" r="7.63" transform="translate(142.68 434.94) rotate(-67.39)"/><path class="cls-36" d="M389.16,118a9.83,9.83,0,0,1,1.18-1.76,17.13,17.13,0,0,1,1.43-1.52l.23,1.13a5.72,5.72,0,0,1-2.4-2.23,8.8,8.8,0,0,1-1.17-2.84c.67.77,1.3,1.53,2,2.21a6.69,6.69,0,0,0,2.12,1.57l1,.37-.74.77a17,17,0,0,1-1.51,1.43,9.84,9.84,0,0,1-1.75,1.2.25.25,0,0,1-.33-.11A.22.22,0,0,1,389.16,118Z" transform="translate(0.06 -0.05)"/><path class="cls-36" d="M389.16,118a9.83,9.83,0,0,1,1.18-1.76,17.13,17.13,0,0,1,1.43-1.52l.23,1.13a5.72,5.72,0,0,1-2.4-2.23,8.8,8.8,0,0,1-1.17-2.84c.67.77,1.3,1.53,2,2.21a6.69,6.69,0,0,0,2.12,1.57l1,.37-.74.77a17,17,0,0,1-1.51,1.43,9.84,9.84,0,0,1-1.75,1.2.25.25,0,0,1-.33-.11A.22.22,0,0,1,389.16,118Z" transform="translate(0.06 -0.05)"/><polygon class="cls-37" points="382.67 162.87 367.71 163.47 371.96 173.81 379.02 173.53 382.67 162.87"/><polygon class="cls-37" points="379.02 173.53 378.39 197.05 371.47 246.28 367.14 209.07 371.96 173.81 379.02 173.53"/><polygon class="cls-19" points="353.87 148 374.98 162.75 366.28 172.51 350.65 154.46 353.87 148"/><polygon class="cls-19" points="374.98 162.75 382.55 170.06 389.37 155.45 384.84 150.13 374.98 162.75"/><path class="cls-38" d="M432.74,238.6s1-61.49-22.52-76.4c-5.06-3.21-12.52-5.06-20.91-6.7l-7.81,28.23-13.82,55.75C384.16,238.23,429.9,238.64,432.74,238.6Z" transform="translate(0.06 -0.05)"/><path class="cls-38" d="M379.8,235.63l-31.3-80.58s-20.58,8.6-25.07,13.71c-15.07,17.13-15.21,64.3-15.21,64.3" transform="translate(0.06 -0.05)"/></g><path class="cls-30" d="M336.12,226.78s.27-6.59,8.59-5c0,0,4.15,2.69,3,13.62a2.68,2.68,0,0,1-2.93,2.18h0a2.75,2.75,0,0,1-2.68-2.14l-1.07-7.61Z" transform="translate(0.06 -0.05)"/><path class="cls-30" d="M344.71,221.77a8.33,8.33,0,0,1,6.86.35,7.39,7.39,0,0,1,5.39,1.13,3.88,3.88,0,0,1,2.91.52,3.75,3.75,0,0,1,1.85,3.41c-.05,2.27-.5,6.16-2.7,8.35a1.9,1.9,0,0,1-1.95.46c-.55-.18-.87-.06-1.18-.81a2.88,2.88,0,0,1-2.23,1.38,2.3,2.3,0,0,1-2.28-1.78s.4,3.54-4.11,2.42S344.71,221.77,344.71,221.77Z" transform="translate(0.06 -0.05)"/><path class="cls-30" d="M401.58,226.78s.27-6.59,8.59-5c0,0,4.15,2.69,3,13.62a2.68,2.68,0,0,1-2.93,2.18h0a2.75,2.75,0,0,1-2.68-2.14l-1.07-7.61Z" transform="translate(0.06 -0.05)"/><path class="cls-30" d="M410.17,221.77a8.33,8.33,0,0,1,6.86.35,7.39,7.39,0,0,1,5.39,1.13,3.88,3.88,0,0,1,2.91.52,3.75,3.75,0,0,1,1.85,3.41c-.05,2.27-.5,6.16-2.7,8.35a1.9,1.9,0,0,1-2,.46c-.55-.18-.87-.06-1.18-.81a2.88,2.88,0,0,1-2.23,1.38,2.3,2.3,0,0,1-2.28-1.78s.4,3.54-4.11,2.42S410.17,221.77,410.17,221.77Z" transform="translate(0.06 -0.05)"/><polyline class="cls-39" points="348.56 155 373.01 217.87 373.01 226.98"/><circle class="cls-15" cx="603.14" cy="151.36" r="88.51"/><g class="cls-40"><path class="cls-41" d="M635.13,115.67s12.31-9.52,10.25-34.55l-18,3.17Z" transform="translate(0.06 -0.05)"/><path class="cls-14" d="M635,96l2.16,39.76a13.87,13.87,0,0,1-11.94,14.76h0a13.82,13.82,0,0,1-15.55-14L610,99.35Z" transform="translate(0.06 -0.05)"/><path class="cls-8" d="M609.76,124.46l0-5.48s11.13,2.14,19.83-8.11C629.54,110.87,625.09,121.79,609.76,124.46Z" transform="translate(0.06 -0.05)"/><path class="cls-14" d="M630.6,66.54a17.13,17.13,0,0,1,4.12,3.36c11.14,12.36,2.13,34.3-9.19,43.71-6.27,5.21-15.07,7.23-22.41,3.87-10.73-4.92-13.35-17.75-10.37-28.82,2.22-8.24,7.32-15.83,14.42-20.29S623.56,62.46,630.6,66.54Z" transform="translate(0.06 -0.05)"/><path class="cls-14" d="M629.92,107.11a8.63,8.63,0,0,0,8.37,2.51,9.51,9.51,0,0,0,6.24-6.33c.83-2.72.33-5.91-1.57-7.74a5.39,5.39,0,0,0-7.39.13Z" transform="translate(0.06 -0.05)"/><path class="cls-42" d="M636,103.29c1.61.28,3.08-.51,3.29-1.77a2.38,2.38,0,0,0-1.42-2.39" transform="translate(0.06 -0.05)"/><path class="cls-27" d="M601.89,93.52a5.14,5.14,0,0,1-.95-1.17,8.46,8.46,0,0,1-.66-1.31l-.42-1,1,0a4.56,4.56,0,0,0,1.68-.44c.61-.25,1.23-.55,1.91-.84a5.29,5.29,0,0,1-1.37,1.71,3.94,3.94,0,0,1-2.19,1l.62-1a8.37,8.37,0,0,1,.54,1.36,4.86,4.86,0,0,1,.23,1.5Z" transform="translate(0.06 -0.05)"/><path class="cls-27" d="M598.36,95.89a9.1,9.1,0,0,0,2.11,1.79,4.43,4.43,0,0,0,2.35.6,8.12,8.12,0,0,0,2.5-.6c.4-.2.84-.37,1.27-.57s.85-.44,1.33-.62a11.47,11.47,0,0,1-.93,1.18,12,12,0,0,1-1.15,1,5.86,5.86,0,0,1-3,1,4.31,4.31,0,0,1-3-1.12A4.54,4.54,0,0,1,598.36,95.89Z" transform="translate(0.06 -0.05)"/><path class="cls-9" d="M613.43,85.26a12.81,12.81,0,0,0-1.09,3.54,3.14,3.14,0,0,0,.16,1.64,1.57,1.57,0,0,0,1.14.84c1,.3,2.09-.39,3-1.21a15,15,0,0,0,2.27-2.95h0a.33.33,0,0,1,.58.31,12.28,12.28,0,0,1-2.18,3.33A6.07,6.07,0,0,1,615.6,92a3.21,3.21,0,0,1-2.21.27,2.57,2.57,0,0,1-1.79-1.44,3.63,3.63,0,0,1-.16-2.17A10.43,10.43,0,0,1,613,85a.28.28,0,0,1,.38-.09.29.29,0,0,1,.11.36Z" transform="translate(0.06 -0.05)"/><path class="cls-9" d="M598.84,78.83a13.54,13.54,0,0,0-.91,3,3.25,3.25,0,0,0,.05,1.37,1,1,0,0,0,.79.68c.75.23,1.62-.42,2.3-1.13a15.49,15.49,0,0,0,1.85-2.51h0a.32.32,0,0,1,.45-.11.33.33,0,0,1,.13.41,11.16,11.16,0,0,1-1.72,2.86,5.58,5.58,0,0,1-1.34,1.16,2.58,2.58,0,0,1-1.92.34,2,2,0,0,1-1.48-1.39,3.55,3.55,0,0,1,0-1.83,10.05,10.05,0,0,1,1.31-3.08.28.28,0,0,1,.5.25Z" transform="translate(0.06 -0.05)"/><path class="cls-41" d="M635.75,64.72A29.24,29.24,0,0,0,615.34,61c-6.09,1-14.05,4.14-14.76,8.45-1.23,7.44,20.07,6.71,24.14,6s7.19,1.39,5.18,6.39c-1.45,3.58-4.5,17.9,7.5,12.73C647.15,90.32,649.64,73.45,635.75,64.72Z" transform="translate(0.06 -0.05)"/><polygon class="cls-14" points="569.9 172.8 561.85 145.21 545.76 151.3 553.09 178.72 569.9 172.8"/><polygon class="cls-43" points="569.22 165.5 565.13 155.01 547.45 159.49 550.65 172.13 569.22 165.5"/><path class="cls-43" d="M590.74,216.52s-18.34-57-22.89-55.83l-19.55,4.75c-4.69,1.19,5.31,60.72,5.31,60.72a16.92,16.92,0,0,0,18.89,13.28h0C582.59,238.05,593.37,226.36,590.74,216.52Z" transform="translate(0.06 -0.05)"/><path class="cls-43" d="M585.38,146.68s-18.18,35.19,2.85,102.94l26.9-23.87Z" transform="translate(0.06 -0.05)"/><path class="cls-44" d="M669.44,256.64s-33.19,26.62-64.81,3.55l-1.76-65.6-4.44-44.54,6.2-10.42,18.49-4.75,22.12,2.19,2.9,39.15Z" transform="translate(0.06 -0.05)"/><path class="cls-14" d="M634.32,136.65s-14.2,14.27-29.18,0l5.07-12.55L634.6,126Z" transform="translate(0.06 -0.05)"/><path class="cls-43" d="M605.94,168.64c1.66,26,4,73.65,1.64,105a2,2,0,0,1-3.65.87l-.09-.14a29.18,29.18,0,0,1-4.18-13.47l-3.88-70L585,154a11.28,11.28,0,0,1,3.22-11.46c3.37-3.08,12.61-10.5,20.35-13.93l-.44,2.39A154.51,154.51,0,0,0,605.94,168.64Z" transform="translate(0.06 -0.05)"/><path class="cls-45" d="M578.39,178.77s-.73,17.24,5.49,55.11" transform="translate(0.06 -0.05)"/><path class="cls-43" d="M631.45,136.58A80.57,80.57,0,0,0,626.16,169c.84,20.72,4.86,64.2,23.2,103.46a6.39,6.39,0,0,0,7.4,3.47c6.63-1.74,19.2-6.87,30.85-26.53l-5.88-100.08a12.06,12.06,0,0,0-5.72-9.55c-5.74-3.52-27.15-10.3-39.33-13.68A49,49,0,0,0,631.45,136.58Z" transform="translate(0.06 -0.05)"/><path class="cls-43" d="M676.07,139.85s-26.73,25.05-6.77,76.38l3.35,18.15a18.63,18.63,0,0,0,22.69,14.72h0a18.61,18.61,0,0,0,14-20.89C705.13,200.41,694.68,147.44,676.07,139.85Z" transform="translate(0.06 -0.05)"/><path class="cls-45" d="M670.82,146.68s-14.18,13.25-6.53,53.49,13.05,63.05,13.05,63.05" transform="translate(0.06 -0.05)"/><path class="cls-14" d="M562,146.44c.34-4.34,2-13.63,5.52-17a2.89,2.89,0,0,0-3.23-1.05,18,18,0,0,0-6.88,5.43S545.59,114.68,544,116.24s4.76,11.41,4.76,11.41-9.43-13.51-10.51-11.48c-.41.78,1.9,1.73,5.48,11.31,0,0-9.3-11.38-9.48-8.6-.23,3.49,4.94,10.68,4.94,10.68s-7.33-6.55-7.35-4.28C531.8,126.93,542.4,144,546,152,548.55,151.49,562.38,147.19,562,146.44Z" transform="translate(0.06 -0.05)"/><path class="cls-46" d="M557.42,133.82s-4.92,4.29-3.18,10.16" transform="translate(0.06 -0.05)"/></g><rect class="cls-3" x="522.15" y="278.53" width="171.42" height="171.42"/><path class="cls-47" d="M597.87,450.54s0-6.67-7.74-5.6c0,0-4,2.3-3.42,12.42a2.48,2.48,0,0,0,2.61,2.13h0a2.52,2.52,0,0,0,2.56-1.84l1.49-7.11Z" transform="translate(0.06 -0.05)"/><path class="cls-47" d="M590.13,444.94a7.72,7.72,0,0,0-6.34,0,6.84,6.84,0,0,0-5,.8,3.66,3.66,0,0,0-4.56,3.4c-.05,2.09.18,5.7,2.12,7.82a1.75,1.75,0,0,0,1.77.51c.51-.14.8,0,1.12-.69a2.65,2.65,0,0,0,2,1.36,2.12,2.12,0,0,0,2.19-1.53s-.53,3.24,3.68,2.41S590.13,444.94,590.13,444.94Z" transform="translate(0.06 -0.05)"/><path class="cls-48" d="M637.53,286.4,623,359s20.59,8,24.3-17.79l29.59-48.79Z" transform="translate(0.06 -0.05)"/><path class="cls-48" d="M654,284.5s11.07,15.5,10.67,22.92l-20.6,63.27,24.31,11.08s19.39-57.12,13.65-81.65c-1.86-7.93-9.38-16-16.73-19.57a15.79,15.79,0,0,0-8.78-1.84A4.43,4.43,0,0,0,654,284.5Z" transform="translate(0.06 -0.05)"/><path class="cls-47" d="M670.4,283.31a16.89,16.89,0,0,1,3.41,4.05c8.58,14.15-4.42,33.73-17.32,40.7-7.14,3.86-16.15,4.14-22.72-.53-9.6-6.83-9.74-19.8-4.72-30,3.74-7.59,10.19-14,18-16.95S664.26,278,670.4,283.31Z" transform="translate(0.06 -0.05)"/><path class="cls-47" d="M662,322.59a8.71,8.71,0,0,0,7.74,4.05,9.45,9.45,0,0,0,7.33-5c1.33-2.49,1.45-5.68-.07-7.82a5.44,5.44,0,0,0-7.28-1.29Z" transform="translate(0.06 -0.05)"/><path class="cls-47" d="M666.85,316.33l-12.21,37.48a13.76,13.76,0,0,1-16.41,9.31h0a13.76,13.76,0,0,1-9.48-18.56l13.66-34.19Z" transform="translate(0.06 -0.05)"/><path class="cls-8" d="M633.19,333.46l1.91-5.07s9.62,6,21.39-.33C656.49,328.06,648.43,336.54,633.19,333.46Z" transform="translate(0.06 -0.05)"/><path class="cls-48" d="M672.53,311.68c-17.16-9.35-13-19.87-13.07-24.48-.09-3.6-4.13-1.58-14.13-5.88,0,0,11.95-7.85,25.07,2C683.84,293.4,672.53,311.68,672.53,311.68Z" transform="translate(0.06 -0.05)"/><path class="cls-48" d="M628.67,285.35c-2,.48,12.15,6.4,23,4,8-1.77,17.25-.69,18.35-3.59,1.34-3.52-6.64-7.22-11.48-8.18C647.74,275.46,645.33,281.32,628.67,285.35Z" transform="translate(0.06 -0.05)"/><path class="cls-49" d="M636.36,308.57a5.19,5.19,0,0,1-1-1.17,7.84,7.84,0,0,1-.64-1.3l-.41-1,1,0a4.73,4.73,0,0,0,1.69-.43c.61-.25,1.23-.55,1.9-.83a5.31,5.31,0,0,1-1.38,1.68,4,4,0,0,1-2.18.94l.61-1a9.22,9.22,0,0,1,.53,1.35,5,5,0,0,1,.24,1.48.26.26,0,0,1-.26.25A.28.28,0,0,1,636.36,308.57Z" transform="translate(0.06 -0.05)"/><path class="cls-49" d="M632.81,310.9a8.63,8.63,0,0,0,2.1,1.79,4.44,4.44,0,0,0,2.36.6,8,8,0,0,0,2.5-.58c.41-.21.85-.36,1.27-.57s.86-.43,1.33-.61a12.88,12.88,0,0,1-.94,1.16c-.36.34-.76.65-1.16,1a5.79,5.79,0,0,1-3,1,4.36,4.36,0,0,1-3-1.11A4.59,4.59,0,0,1,632.81,310.9Z" transform="translate(0.06 -0.05)"/><path class="cls-50" d="M668.71,320c1.53.58,3.12.09,3.57-1.08a2.35,2.35,0,0,0-.95-2.6" transform="translate(0.06 -0.05)"/><path class="cls-9" d="M647.92,300.43A12,12,0,0,0,646.8,304a3.08,3.08,0,0,0,.16,1.62,1.57,1.57,0,0,0,1.15.83c1,.3,2.1-.38,3-1.19a15.11,15.11,0,0,0,2.28-2.91h0a.31.31,0,0,1,.44-.11.33.33,0,0,1,.13.41,12,12,0,0,1-2.21,3.29,5.88,5.88,0,0,1-1.66,1.23,3.17,3.17,0,0,1-2.19.27,2.55,2.55,0,0,1-1.79-1.41,3.66,3.66,0,0,1-.17-2.15,10.24,10.24,0,0,1,1.53-3.66.26.26,0,0,1,.37-.09.27.27,0,0,1,.1.35Z" transform="translate(0.06 -0.05)"/><path class="cls-9" d="M633.35,294a13.09,13.09,0,0,0-.93,2.95,3.06,3.06,0,0,0,.05,1.36,1,1,0,0,0,.79.68c.76.22,1.63-.42,2.32-1.12a15.24,15.24,0,0,0,1.85-2.48h0a.32.32,0,0,1,.57.29,10.74,10.74,0,0,1-1.74,2.83,5.54,5.54,0,0,1-1.34,1.14A2.6,2.6,0,0,1,633,300a2,2,0,0,1-1.48-1.36,3.51,3.51,0,0,1,0-1.82,9.8,9.8,0,0,1,1.32-3.05.28.28,0,0,1,.38-.09.28.28,0,0,1,.1.34Z" transform="translate(0.06 -0.05)"/><path class="cls-51" d="M627.61,340s39.35,7.39,34.93,31.13c.15-.81-9.86,76.61-9.28,78.89l-55.39,0c-8.25-31.59,3.94-53.87,15.61-86.84Z" transform="translate(0.06 -0.05)"/><path class="cls-47" d="M536.55,292.4c-2.43,1.64-4.52,3.1-7,4.67l29,35.87,19.59-12.09-32.88-31C543.06,291.34,538.62,291,536.55,292.4Z" transform="translate(0.06 -0.05)"/><path class="cls-47" d="M545.31,290.15c-1.28-3.64-3.23-11.77-1.6-15.73a2.62,2.62,0,0,0-3,.3c-3,3.35-2.36,8.18-2.36,8.18s-17.85-12.64-18.61-10.8,8,7.55,8,7.55-12.57-7.59-12.72-5.57c-.06.78,2.18.74,8.55,7.21,0,0-11.7-5.9-10.85-3.59,1.07,2.91,7.88,6.89,7.88,6.89s-8.34-2.69-7.55-.85c.58,1.34,13.61,11.19,19.41,16.39C534.35,298.84,545.88,290.62,545.31,290.15Z" transform="translate(0.06 -0.05)"/><path class="cls-51" d="M627.61,340h0a156.32,156.32,0,0,1-51.39-26.27l-27.15-21-12.55,19.67,8.41,11.45a147.35,147.35,0,0,0,92.6,57.8h0a1.08,1.08,0,0,0,1.28-1.15A123.31,123.31,0,0,0,627.61,340Z" transform="translate(0.06 -0.05)"/><line class="cls-52" x1="609.48" y1="373.96" x2="622.68" y2="377.56"/></g></svg>